<svg width="67" height="30" viewBox="0 0 67 30" fill="none" xmlns="http://www.w3.org/2000/svg">
    <path
        d="M4.538 14.27C4.538 14.7727 4.58133 15.128 4.668 15.336C4.75467 15.5267 4.928 15.6567 5.188 15.726C5.46533 15.7953 5.93333 15.83 6.592 15.83C8.048 15.83 9.07933 15.7607 9.686 15.622C10.31 15.4833 10.752 15.206 11.012 14.79C11.272 14.374 11.4713 13.6633 11.61 12.658L12.754 12.528L12.832 12.658C12.78 12.9007 12.676 13.464 12.52 14.348C12.364 15.2147 12.234 16.1073 12.13 17.026L12 17.182C11.4107 17.1647 10.206 17.13 8.386 17.078C6.566 17.026 5.14467 17 4.122 17C3.30733 17 2.54467 17.0347 1.834 17.104C1.14067 17.1733 0.698667 17.2253 0.508 17.26L0.664 16.064C1.444 15.96 1.97267 15.7607 2.25 15.466C2.54467 15.154 2.692 14.6253 2.692 13.88L2.718 2.96C2.718 2.40533 2.64867 2.03267 2.51 1.842C2.38867 1.65133 2.13733 1.556 1.756 1.556C1.58267 1.556 1.40933 1.56467 1.236 1.582C1.06267 1.59933 0.941333 1.608 0.872 1.608L0.82 1.504L1.002 0.359999C1.22733 0.377332 1.678 0.394666 2.354 0.412C3.04733 0.429333 3.80133 0.437999 4.616 0.437999C6.67867 0.437999 8.282 0.420666 9.426 0.385998C10.57 0.333999 11.5667 0.247333 12.416 0.125999L12.494 0.282C12.4767 0.386 12.4247 0.637333 12.338 1.036C12.2687 1.41733 12.1907 1.92867 12.104 2.57C12.0173 3.21133 11.948 3.88733 11.896 4.598L10.648 4.702C10.648 4.61533 10.6567 4.468 10.674 4.26C10.6913 4.03467 10.7 3.80933 10.7 3.584C10.7 2.97733 10.622 2.56133 10.466 2.336C10.31 2.09333 9.972 1.93733 9.452 1.868C8.932 1.78133 8.022 1.738 6.722 1.738C6.11533 1.738 5.69933 1.75533 5.474 1.79C5.24867 1.82467 5.10133 1.91133 5.032 2.05C4.96267 2.17133 4.91933 2.40533 4.902 2.752L4.694 7.796L7.372 7.822C7.77067 7.822 8.334 7.78733 9.062 7.718C9.80733 7.63133 10.3013 7.57067 10.544 7.536L10.648 7.666L10.284 9.2C10.0413 9.18267 9.56467 9.16533 8.854 9.148C8.16067 9.13067 7.424 9.122 6.644 9.122C6.00267 9.122 5.33533 9.18267 4.642 9.304C4.57267 11.8 4.538 13.4553 4.538 14.27ZM18.8073 17.312C18.2527 17.312 17.7413 17.2687 17.2733 17.182C16.8227 17.1127 16.4673 17.0347 16.2073 16.948C15.9473 16.8613 15.7827 16.8007 15.7133 16.766L15.6353 16.584C15.6873 16.324 15.748 15.7867 15.8173 14.972C15.8867 14.1573 15.93 13.5333 15.9473 13.1L16.8573 12.97C16.8573 14.114 17.048 14.92 17.4293 15.388C17.8107 15.856 18.4607 16.09 19.3793 16.09C20.038 16.09 20.5927 15.9427 21.0433 15.648C21.494 15.3533 21.7193 14.9893 21.7193 14.556C21.7193 14.1227 21.5113 13.7327 21.0953 13.386C20.6967 13.022 19.8993 12.5193 18.7033 11.878C17.7153 11.3753 16.996 10.8727 16.5453 10.37C16.0947 9.85 15.8693 9.278 15.8693 8.654C15.8693 7.96067 16.0773 7.328 16.4933 6.756C16.9093 6.184 17.4813 5.742 18.2093 5.43C18.9373 5.10067 19.752 4.936 20.6533 4.936C21.0693 4.936 21.468 4.97067 21.8493 5.04C22.2307 5.092 22.5427 5.15267 22.7853 5.222C23.028 5.29133 23.184 5.33467 23.2533 5.352L23.3053 5.482C23.2707 5.65533 23.1927 6.054 23.0713 6.678C22.95 7.28467 22.8633 7.94333 22.8113 8.654L21.8493 8.732C21.8493 8.68 21.858 8.576 21.8753 8.42C21.8927 8.264 21.9013 8.11667 21.9013 7.978C21.9013 7.354 21.728 6.90333 21.3813 6.626C21.052 6.33133 20.5147 6.184 19.7693 6.184C19.18 6.184 18.6773 6.32267 18.2613 6.6C17.8627 6.87733 17.6633 7.21533 17.6633 7.614C17.6633 8.03 17.8367 8.42 18.1833 8.784C18.5473 9.148 19.128 9.538 19.9253 9.954C21.3293 10.6993 22.2827 11.3233 22.7853 11.826C23.3053 12.3287 23.5653 12.9093 23.5653 13.568C23.5653 14.2267 23.34 14.842 22.8893 15.414C22.456 15.986 21.8753 16.4453 21.1473 16.792C20.4193 17.1387 19.6393 17.312 18.8073 17.312ZM26.9543 7.77C26.9543 7.302 26.8503 6.97267 26.6423 6.782C26.4343 6.59133 26.0443 6.48733 25.4723 6.47L25.3683 6.314L25.4983 5.534C26.0009 5.29133 26.4863 4.99667 26.9543 4.65C27.4396 4.286 27.8296 3.974 28.1243 3.714C28.4363 3.43667 28.6356 3.25467 28.7223 3.168L29.2423 3.376C29.2249 3.46267 29.1989 3.67067 29.1643 4C29.1296 4.32933 29.0863 4.77133 29.0343 5.326L32.8563 5.248L32.9343 5.326L32.7003 6.704L28.9303 6.626C28.8089 8.53267 28.7483 10.6993 28.7483 13.126C28.7483 14.01 28.8956 14.634 29.1903 14.998C29.5023 15.362 30.0309 15.544 30.7763 15.544C31.0363 15.544 31.2963 15.5093 31.5563 15.44C31.8163 15.3707 32.0329 15.3013 32.2063 15.232C32.3796 15.1453 32.4923 15.0933 32.5443 15.076L32.8043 15.752C32.7003 15.8387 32.4749 16.0033 32.1283 16.246C31.7989 16.4887 31.4349 16.7313 31.0363 16.974C30.6549 17.1993 30.3689 17.312 30.1783 17.312C28.9996 17.312 28.1676 17.078 27.6823 16.61C27.1969 16.1247 26.9543 15.31 26.9543 14.166V7.77ZM39.3843 14.634C41.4123 9.78067 42.4263 7.16333 42.4263 6.782C42.4263 6.33133 42.097 6.106 41.4383 6.106H40.2423L40.1903 6.002L40.3463 5.144C40.5023 5.16133 40.8403 5.18733 41.3603 5.222C41.8976 5.23933 42.435 5.248 42.9723 5.248L45.1823 5.222L45.0003 6.184C44.619 6.25333 44.3243 6.392 44.1163 6.6C43.9256 6.79067 43.735 7.146 43.5443 7.666L40.1903 15.57C39.2023 17.8233 38.431 19.4613 37.8763 20.484C37.339 21.5067 36.8016 22.226 36.2643 22.642C35.7443 23.0753 35.103 23.2833 34.3403 23.266C34.2016 23.266 33.9763 23.058 33.6643 22.642C33.3523 22.2433 33.1963 21.9573 33.1963 21.784L33.3263 21.602C34.3316 21.602 35.2763 21.1947 36.1603 20.38C37.0616 19.5827 37.807 18.4647 38.3963 17.026C37.9803 15.7087 37.4256 14.0793 36.7323 12.138C36.0563 10.1967 35.4756 8.628 34.9903 7.432C34.7823 6.99867 34.5396 6.68667 34.2623 6.496C34.0023 6.30533 33.6556 6.20133 33.2223 6.184L33.1703 6.08L33.3263 5.222L35.4843 5.248C36.1256 5.248 36.7583 5.222 37.3823 5.17C38.0236 5.118 38.431 5.08333 38.6043 5.066L38.6563 5.196L38.5003 6.002C37.911 6.01933 37.5036 6.08 37.2783 6.184C37.0703 6.27067 36.9663 6.43533 36.9663 6.678C36.9663 6.95533 37.1396 7.68333 37.4863 8.862C37.833 10.0407 38.1883 11.2107 38.5523 12.372C38.9163 13.5333 39.159 14.2873 39.2803 14.634H39.3843ZM50.5816 17.312C49.5936 17.312 48.7182 17.0693 47.9556 16.584C47.1929 16.0987 46.5949 15.4227 46.1616 14.556C45.7456 13.672 45.5376 12.6667 45.5376 11.54C45.5376 10.3267 45.7976 9.21733 46.3176 8.212C46.8549 7.18933 47.5829 6.392 48.5016 5.82C49.4202 5.23067 50.4429 4.936 51.5696 4.936C52.5402 4.936 53.4069 5.17867 54.1696 5.664C54.9496 6.14933 55.5476 6.834 55.9636 7.718C56.3969 8.58467 56.6136 9.58133 56.6136 10.708C56.6136 11.9213 56.3449 13.0393 55.8076 14.062C55.2876 15.0673 54.5682 15.8647 53.6496 16.454C52.7309 17.026 51.7082 17.312 50.5816 17.312ZM51.3096 16.038C52.2802 16.038 53.0516 15.648 53.6236 14.868C54.1956 14.0707 54.4816 12.996 54.4816 11.644C54.4816 10.6213 54.3256 9.71133 54.0136 8.914C53.7016 8.09933 53.2596 7.46667 52.6876 7.016C52.1329 6.56533 51.5002 6.34 50.7896 6.34C49.8189 6.34 49.0476 6.73867 48.4756 7.536C47.9036 8.33333 47.6176 9.41667 47.6176 10.786C47.6176 11.8087 47.7736 12.7187 48.0856 13.516C48.3976 14.3133 48.8309 14.9373 49.3856 15.388C49.9402 15.8213 50.5816 16.038 51.3096 16.038ZM61.9968 17.312C61.4421 17.312 60.9308 17.2687 60.4628 17.182C60.0121 17.1127 59.6568 17.0347 59.3968 16.948C59.1368 16.8613 58.9721 16.8007 58.9028 16.766L58.8248 16.584C58.8768 16.324 58.9374 15.7867 59.0068 14.972C59.0761 14.1573 59.1194 13.5333 59.1368 13.1L60.0468 12.97C60.0468 14.114 60.2374 14.92 60.6188 15.388C61.0001 15.856 61.6501 16.09 62.5688 16.09C63.2274 16.09 63.7821 15.9427 64.2328 15.648C64.6834 15.3533 64.9088 14.9893 64.9088 14.556C64.9088 14.1227 64.7008 13.7327 64.2848 13.386C63.8861 13.022 63.0888 12.5193 61.8928 11.878C60.9048 11.3753 60.1854 10.8727 59.7348 10.37C59.2841 9.85 59.0588 9.278 59.0588 8.654C59.0588 7.96067 59.2668 7.328 59.6828 6.756C60.0988 6.184 60.6708 5.742 61.3988 5.43C62.1268 5.10067 62.9414 4.936 63.8428 4.936C64.2588 4.936 64.6574 4.97067 65.0388 5.04C65.4201 5.092 65.7321 5.15267 65.9748 5.222C66.2174 5.29133 66.3734 5.33467 66.4428 5.352L66.4948 5.482C66.4601 5.65533 66.3821 6.054 66.2608 6.678C66.1394 7.28467 66.0528 7.94333 66.0008 8.654L65.0388 8.732C65.0388 8.68 65.0474 8.576 65.0648 8.42C65.0821 8.264 65.0908 8.11667 65.0908 7.978C65.0908 7.354 64.9174 6.90333 64.5708 6.626C64.2414 6.33133 63.7041 6.184 62.9588 6.184C62.3694 6.184 61.8668 6.32267 61.4508 6.6C61.0521 6.87733 60.8528 7.21533 60.8528 7.614C60.8528 8.03 61.0261 8.42 61.3728 8.784C61.7368 9.148 62.3174 9.538 63.1148 9.954C64.5188 10.6993 65.4721 11.3233 65.9748 11.826C66.4948 12.3287 66.7548 12.9093 66.7548 13.568C66.7548 14.2267 66.5294 14.842 66.0788 15.414C65.6454 15.986 65.0648 16.4453 64.3368 16.792C63.6088 17.1387 62.8288 17.312 61.9968 17.312Z"
        fill="black" />
    <path
        d="M18.5795 21.2102V20.2727H25.125V21.2102H22.3807V29H21.3239V21.2102H18.5795ZM27.6552 29.1534C27.2404 29.1534 26.864 29.0753 26.5259 28.919C26.1879 28.7599 25.9194 28.5312 25.7205 28.233C25.5217 27.9318 25.4222 27.5682 25.4222 27.142C25.4222 26.767 25.4961 26.4631 25.6438 26.2301C25.7915 25.9943 25.989 25.8097 26.2362 25.6761C26.4833 25.5426 26.756 25.4432 27.0543 25.3778C27.3555 25.3097 27.658 25.2557 27.962 25.2159C28.3597 25.1648 28.6822 25.1264 28.9293 25.1009C29.1793 25.0724 29.3612 25.0256 29.4748 24.9602C29.5913 24.8949 29.6495 24.7812 29.6495 24.6193V24.5852C29.6495 24.1648 29.5344 23.8381 29.3043 23.6051C29.0771 23.3722 28.7319 23.2557 28.2688 23.2557C27.7887 23.2557 27.4123 23.3608 27.1396 23.571C26.8668 23.7812 26.6751 24.0057 26.5643 24.2443L25.6097 23.9034C25.7802 23.5057 26.0075 23.196 26.2915 22.9744C26.5785 22.75 26.891 22.5937 27.229 22.5057C27.57 22.4148 27.9052 22.3693 28.2347 22.3693C28.445 22.3693 28.6864 22.3949 28.9592 22.446C29.2347 22.4943 29.5004 22.5952 29.756 22.7486C30.0146 22.902 30.229 23.1335 30.3995 23.4432C30.57 23.7528 30.6552 24.1676 30.6552 24.6875V29H29.6495V28.1136H29.5984C29.5302 28.2557 29.4165 28.4077 29.2575 28.5696C29.0984 28.7315 28.8867 28.8693 28.6225 28.983C28.3583 29.0966 28.0359 29.1534 27.6552 29.1534ZM27.8086 28.25C28.2063 28.25 28.5415 28.1719 28.8143 28.0156C29.0898 27.8594 29.2972 27.6577 29.4364 27.4105C29.5785 27.1634 29.6495 26.9034 29.6495 26.6307V25.7102C29.6069 25.7614 29.5131 25.8082 29.3683 25.8509C29.2262 25.8906 29.0614 25.9261 28.8739 25.9574C28.6893 25.9858 28.5089 26.0114 28.3327 26.0341C28.1594 26.054 28.0188 26.071 27.9109 26.0852C27.6495 26.1193 27.4052 26.1747 27.1779 26.2514C26.9535 26.3253 26.7717 26.4375 26.6325 26.5881C26.4961 26.7358 26.4279 26.9375 26.4279 27.1932C26.4279 27.5426 26.5572 27.8068 26.8157 27.9858C27.0771 28.1619 27.408 28.25 27.8086 28.25ZM37.1271 23.9205L36.2237 24.1761C36.1669 24.0256 36.0831 23.8793 35.9723 23.7372C35.8643 23.5923 35.7166 23.473 35.5291 23.3793C35.3416 23.2855 35.1016 23.2386 34.8089 23.2386C34.4084 23.2386 34.0746 23.331 33.8075 23.5156C33.5433 23.6974 33.4112 23.929 33.4112 24.2102C33.4112 24.4602 33.5021 24.6577 33.6839 24.8026C33.8658 24.9474 34.1499 25.0682 34.5362 25.1648L35.5078 25.4034C36.093 25.5455 36.5291 25.7628 36.8161 26.0554C37.103 26.3452 37.2464 26.7187 37.2464 27.1761C37.2464 27.5511 37.1385 27.8864 36.9226 28.1818C36.7095 28.4773 36.4112 28.7102 36.0277 28.8807C35.6442 29.0511 35.1982 29.1364 34.6896 29.1364C34.022 29.1364 33.4695 28.9915 33.032 28.7017C32.5945 28.4119 32.3175 27.9886 32.201 27.4318L33.1555 27.1932C33.2464 27.5455 33.4183 27.8097 33.6712 27.9858C33.9268 28.1619 34.2607 28.25 34.6726 28.25C35.1413 28.25 35.5135 28.1506 35.7891 27.9517C36.0675 27.75 36.2067 27.5085 36.2067 27.2273C36.2067 27 36.1271 26.8097 35.968 26.6562C35.8089 26.5 35.5646 26.3835 35.2351 26.3068L34.1442 26.0511C33.5447 25.9091 33.1044 25.6889 32.8232 25.3906C32.5447 25.0895 32.4055 24.7131 32.4055 24.2614C32.4055 23.892 32.5092 23.5653 32.7166 23.2812C32.9268 22.9972 33.2124 22.7741 33.5732 22.6122C33.9368 22.4503 34.3487 22.3693 34.8089 22.3693C35.4567 22.3693 35.9652 22.5114 36.3345 22.7955C36.7067 23.0795 36.9709 23.4545 37.1271 23.9205ZM39.6978 26.6136L39.6808 25.3693H39.8853L42.7489 22.4545H43.9933L40.9421 25.5398H40.8569L39.6978 26.6136ZM38.7603 29V20.2727H39.766V29H38.7603ZM42.9194 29L40.3626 25.7614L41.0785 25.0625L44.1978 29H42.9194ZM49.924 23.9205L49.0206 24.1761C48.9638 24.0256 48.88 23.8793 48.7692 23.7372C48.6612 23.5923 48.5135 23.473 48.326 23.3793C48.1385 23.2855 47.8984 23.2386 47.6058 23.2386C47.2053 23.2386 46.8714 23.331 46.6044 23.5156C46.3402 23.6974 46.2081 23.929 46.2081 24.2102C46.2081 24.4602 46.299 24.6577 46.4808 24.8026C46.6626 24.9474 46.9467 25.0682 47.3331 25.1648L48.3047 25.4034C48.8899 25.5455 49.326 25.7628 49.6129 26.0554C49.8999 26.3452 50.0433 26.7187 50.0433 27.1761C50.0433 27.5511 49.9354 27.8864 49.7195 28.1818C49.5064 28.4773 49.2081 28.7102 48.8246 28.8807C48.4411 29.0511 47.995 29.1364 47.4865 29.1364C46.8189 29.1364 46.2663 28.9915 45.8288 28.7017C45.3913 28.4119 45.1143 27.9886 44.9979 27.4318L45.9524 27.1932C46.0433 27.5455 46.2152 27.8097 46.468 27.9858C46.7237 28.1619 47.0575 28.25 47.4695 28.25C47.9382 28.25 48.3104 28.1506 48.5859 27.9517C48.8643 27.75 49.0036 27.5085 49.0036 27.2273C49.0036 27 48.924 26.8097 48.7649 26.6562C48.6058 26.5 48.3615 26.3835 48.032 26.3068L46.9411 26.0511C46.3416 25.9091 45.9013 25.6889 45.62 25.3906C45.3416 25.0895 45.2024 24.7131 45.2024 24.2614C45.2024 23.892 45.3061 23.5653 45.5135 23.2812C45.7237 22.9972 46.0092 22.7741 46.37 22.6122C46.7337 22.4503 47.1456 22.3693 47.6058 22.3693C48.2536 22.3693 48.7621 22.5114 49.1314 22.7955C49.5036 23.0795 49.7678 23.4545 49.924 23.9205Z"
        fill="black" />
</svg>